PathFileType	4	(X/Y/Z)	s07c0203.trc
DataRate	CameraRate	NumFrames	NumMarkers	Units	OrigDataRate	OrigDataStartFrame	OrigNumFrames
200	200	4	48	mm	200	0	2000
Frame#	Time	racr			lacr			c7			jug			rlel			rdr			llel			ldr			s2			lic			ric			lasi			rasi			rpsi			lpsi			rgt			lgt			rth1			rth2			rth3			rth4			rlfc			rmfc			rsh1			rsh2			rsh3			rsh4			rlmal			rcal			rtoe			rmt5			lth1			lth2			lth4			lth3			llfc			lmfc			lsh1			lsh2			lsh3			lsh4			llmal			lcal			ltoe			lmt5			SBIKE			LBIKE			RBIKE			
		X1	Y1	Z1	X2	Y2	Z2	X3	Y3	Z3	X4	Y4	Z4	X5	Y5	Z5	X6	Y6	Z6	X7	Y7	Z7	X8	Y8	Z8	X9	Y9	Z9	X10	Y10	Z10	X11	Y11	Z11	X12	Y12	Z12	X13	Y13	Z13	X14	Y14	Z14	X15	Y15	Z15	X16	Y16	Z16	X17	Y17	Z17	X18	Y18	Z18	X19	Y19	Z19	X20	Y20	Z20	X21	Y21	Z21	X22	Y22	Z22	X23	Y23	Z23	X24	Y24	Z24	X25	Y25	Z25	X26	Y26	Z26	X27	Y27	Z27	X28	Y28	Z28	X29	Y29	Z29	X30	Y30	Z30	X31	Y31	Z31	X32	Y32	Z32	X33	Y33	Z33	X34	Y34	Z34	X35	Y35	Z35	X36	Y36	Z36	X37	Y37	Z37	X38	Y38	Z38	X39	Y39	Z39	X40	Y40	Z40	X41	Y41	Z41	X42	Y42	Z42	X43	Y43	Z43	X44	Y44	Z44	X45	Y45	Z45	X46	Y46	Z46	X47	Y47	Z47	X48	Y48	Z48	
0	0.0000	445.957703	1433.598482	-95.959650	426.341840	1424.590971	-390.961657	420.341144	1459.553247	-244.894362	386.671274	1320.866610	-239.802276	464.693324	1110.666541	44.419493	688.954551	935.376537	-59.176684	457.499951	1113.847305	-523.976077	690.594795	931.940835	-446.039585	-131.464234	1200.828270	-250.786964	36.068449	1239.381757	-389.863124	35.698685	1225.544523	-99.596682	64.556998	1157.645929	-364.381114	48.626927	1176.024139	-114.956409	-103.607379	1238.987215	-199.195787	-87.981539	1246.531430	-307.514324	-22.634766	1123.823503	-50.861343	-28.678675	1087.880904	-419.966470	122.138136	1072.111124	-54.347626	208.140495	1062.700387	-69.014311	280.776183	1017.493828	-67.635214	216.960935	1093.162861	-88.447447	400.091705	942.001946	-104.987297	392.323289	925.862942	-210.593042	348.945272	809.142119	-78.208420	334.543810	722.004141	-95.538580	283.439232	652.596620	-88.757431	350.008799	719.361326	-132.187302	223.427414	531.632632	-87.370459	150.921294	502.330165	-114.155603	431.902542	429.851447	-131.418995	351.205176	411.513802	-59.078410	32.779755	982.524149	-425.594400	104.607815	932.700431	-430.037265	133.131750	954.044648	-421.625853	142.025534	850.298906	-425.399546	241.310540	696.696036	-392.617335	228.769260	681.169939	-294.334280	149.941274	576.755627	-412.961692	114.784461	500.887068	-391.715187	44.358465	445.224090	-400.392067	118.290452	503.090283	-349.860621	-45.478087	345.154806	-396.630011	-124.496003	329.566949	-362.205294	143.050470	219.583681	-359.532521	58.774468	221.689669	-423.068098	-261.522921	962.675688	-237.146080	-82.839108	79.210274	-436.574471	-82.486000	78.838125	-38.917143	
1	0.0050	445.919693	1433.602336	-96.026574	426.338186	1424.566889	-390.977475	420.309859	1459.565631	-244.925770	386.671060	1320.867220	-239.802279	464.700839	1110.668222	44.342746	688.948091	935.391181	-59.220271	457.484574	1113.827989	-524.015952	690.599990	931.923640	-446.031687	-131.466479	1200.827060	-250.822901	36.012829	1239.370545	-389.848841	35.705831	1225.561075	-99.650983	64.536751	1157.623750	-364.426587	48.636120	1176.024897	-114.978531	-103.670870	1239.036051	-199.194925	-87.996815	1246.530002	-307.572203	-22.622934	1123.844168	-50.894748	-28.710499	1087.883460	-419.991881	122.143439	1072.163808	-54.352723	208.141543	1062.731549	-69.023141	280.747578	1017.574618	-67.594187	216.958494	1093.218668	-88.469982	400.091205	942.038477	-104.990223	392.324857	925.907224	-210.583617	348.952013	809.198110	-78.200059	334.555881	722.048952	-95.543574	283.435204	652.660247	-88.736018	349.972917	719.404027	-132.183474	223.369896	531.717122	-87.368698	150.899180	502.371850	-114.158868	431.866267	429.906394	-131.411351	351.177282	411.551556	-59.084173	32.743214	982.510689	-425.622320	104.572315	932.669790	-430.062042	133.084618	954.032346	-421.635448	141.973856	850.266973	-425.425353	241.239489	696.672871	-392.595963	228.696761	681.137466	-294.328297	149.874538	576.703032	-412.947608	114.748191	500.813163	-391.683512	44.320973	445.163828	-400.394112	118.280804	503.018087	-349.859715	-45.502296	345.091631	-396.633439	-124.498233	329.461946	-362.207606	143.076353	219.556314	-359.539487	58.792927	221.642135	-423.086797	-261.532164	962.672000	-237.154924	-82.844591	79.229044	-436.583632	-82.479794	78.830942	-38.920575	
2	0.0100	445.927324	1433.596309	-96.055813	426.344544	1424.547942	-391.017073	420.288378	1459.578296	-245.002762	386.655685	1320.834276	-239.825429	464.700259	1110.663395	44.262004	688.928266	935.411064	-59.271105	457.465356	1113.791891	-524.037069	690.599088	931.931218	-446.049267	-131.483401	1200.835546	-250.841232	35.982613	1239.366437	-389.906262	35.678771	1225.558695	-99.681712	64.493663	1157.622444	-364.472131	48.625459	1176.075787	-115.029168	-103.694633	1239.036671	-199.243313	-88.030806	1246.539458	-307.615838	-22.633466	1123.879519	-50.924393	-28.749766	1087.879520	-420.032304	122.122482	1072.189522	-54.369368	208.126267	1062.753536	-69.046391	280.730139	1017.613583	-67.591627	216.951754	1093.253804	-88.496643	400.056499	942.081311	-104.985400	392.338544	925.955256	-210.577712	348.943879	809.245142	-78.190424	334.560685	722.109700	-95.523279	283.435190	652.714262	-88.730005	349.965196	719.454963	-132.180248	223.348129	531.784710	-87.354141	150.850962	502.481623	-114.115620	431.830902	429.953861	-131.413194	351.130647	411.610382	-59.088459	32.691477	982.473463	-425.627990	104.534697	932.641224	-430.068306	133.052615	953.980709	-421.647956	141.929801	850.244718	-425.441615	241.185018	696.630916	-392.567537	228.613174	681.114278	-294.309249	149.830501	576.680413	-412.938929	114.694075	500.765395	-391.687359	44.293491	445.098632	-400.435163	118.239278	502.996466	-349.833507	-45.525529	345.018691	-396.627630	-124.506256	329.365827	-362.206429	143.108713	219.536674	-359.548927	58.822552	221.596986	-423.085133	-261.530917	962.668005	-237.151472	-82.840994	79.234347	-436.576601	-82.478161	78.832515	-38.932037	
3	0.0150	445.923551	1433.611539	-96.095658	425.918195	1422.456871	-382.955547	420.458019	1458.539202	-239.581940	386.676701	1320.807198	-239.847899	463.809019	1111.569455	45.574194	688.958958	935.373979	-59.311802	457.532075	1113.713409	-524.036179	690.736041	932.379104	-446.510471	-131.514854	1200.837880	-250.876734	31.417361	1234.445501	-377.027849	35.495079	1225.519457	-99.748718	64.403500	1157.483556	-364.481649	48.610748	1176.097666	-115.038618	-103.717365	1239.056699	-199.279440	-88.070904	1246.556015	-307.632611	-22.639310	1123.891408	-50.956497	-28.788596	1087.877269	-420.062403	122.020192	1072.352432	-53.055745	208.095087	1062.831167	-69.059278	280.719632	1017.655123	-67.612719	216.876926	1093.075806	-88.831423	400.052829	942.121153	-104.999110	392.336786	926.004214	-210.564615	348.956827	809.296349	-78.190521	342.564199	722.876759	-90.281045	283.452424	652.679346	-88.711929	350.014696	719.294845	-132.373567	222.967978	532.602553	-86.346134	150.746202	502.633126	-114.046373	431.538494	430.304746	-130.797405	351.133457	411.617530	-59.084716	32.647220	982.462664	-425.664508	104.838627	931.477381	-429.103157	133.008666	954.013334	-421.712503	141.667435	850.553840	-425.252658	241.132206	696.600994	-392.532115	228.599529	681.072850	-294.258462	149.793599	576.642670	-412.916667	114.744633	500.606050	-391.716443	44.285887	445.059122	-400.434126	119.104379	502.942594	-349.729503	-45.547883	344.939557	-396.630901	-124.510854	329.266277	-362.206648	143.122413	219.508286	-359.538770	58.838675	221.548682	-423.101589	-261.661472	962.744640	-237.684142	-82.837391	79.222845	-436.582408	-82.478819	78.842525	-38.925799	
